<svg version="1.1" id="Layer_1" xmlns="http://www.w3.org/2000/svg" xmlns:xlink="http://www.w3.org/1999/xlink" x="0px" y="0px"
	 width="100%" viewBox="0 0 272 272" enable-background="new 0 0 272 272" xml:space="preserve">
<path fill="#000000" opacity="1.000000" stroke="none"
	d="
M118.531342,1.000000
	C114.888428,3.411324 110.004753,3.075355 105.674332,4.752151
	C102.959061,5.803537 100.818901,6.445490 102.862534,10.331078
	C104.731766,13.885088 103.032608,17.274666 99.524673,19.175241
	C92.568802,22.943901 85.045601,25.063883 77.192245,25.818100
	C75.063873,26.022503 72.736862,25.452105 71.389343,23.489841
	C69.503021,20.742996 67.656158,21.626705 65.498611,23.073038
	C40.275764,39.981415 21.503412,62.269279 11.000225,90.804596
	C6.860788,102.050728 7.246361,114.369843 7.011725,126.351166
	C6.946507,129.681488 6.983884,133.013977 6.990302,136.345459
	C6.995056,138.813583 7.552584,140.954422 10.931575,142.050491
	C12.955598,134.694916 12.434059,128.009445 7.977659,121.614693
	C10.205300,119.657249 11.769562,120.549309 12.733319,122.646095
	C16.499556,130.840027 18.334770,139.329620 15.960105,148.298447
	C15.439363,150.265228 14.441516,152.370865 12.542655,153.018250
	C8.488012,154.400665 8.432904,157.114761 9.322204,160.437088
	C10.534145,164.964798 10.365568,169.919617 13.219372,174.133148
	C16.851559,171.960327 15.507839,166.753708 19.442356,165.246368
	C21.652054,166.147171 20.859375,167.732086 20.210745,168.998718
	C17.148621,174.978455 19.349689,180.292603 22.207834,185.495422
	C23.977016,188.715958 26.674192,190.679306 30.450085,189.397522
	C34.171562,188.134201 36.597015,185.562012 36.701111,181.283844
	C36.751240,179.223557 36.106995,177.352844 35.570023,175.435089
	C35.094059,173.735214 33.936378,172.078476 35.634407,169.615753
	C40.728409,175.154694 40.841171,181.686996 39.995754,188.094849
	C38.792305,197.216400 31.963795,199.455185 22.328835,199.325104
	C27.853395,209.633743 33.643822,218.165924 41.304005,226.087219
	C44.738605,221.525040 42.225895,214.629257 48.186146,212.115417
	C50.033566,213.347794 49.352547,214.896225 48.940121,216.244675
	C47.538013,220.828903 49.578712,224.083450 53.088718,226.517441
	C56.547981,228.916275 60.558109,230.147675 64.734116,230.693970
	C66.759735,230.958939 68.776405,230.970551 69.997108,228.828064
	C71.142159,226.818359 70.484787,224.966949 69.514534,223.150223
	C68.316261,220.906509 66.495125,219.199203 64.660049,217.489777
	C63.513859,216.422089 61.710510,215.802856 61.720806,213.883575
	C62.891094,212.439728 63.906601,213.287384 64.902824,213.813507
	C71.241524,217.161118 73.955811,223.070114 75.135399,229.581894
	C76.194221,235.427032 69.922150,240.109375 62.910324,239.171066
	C60.792942,238.887726 58.745819,237.927017 55.614418,238.965836
	C62.070869,245.035904 68.851875,249.556808 76.295952,252.699158
	C78.449028,251.374161 78.066788,249.378052 78.960526,248.022812
	C80.230270,246.097382 82.516884,244.687363 83.708229,246.983429
	C86.617386,252.590195 91.985107,252.491623 96.834045,253.668686
	C98.341103,254.034515 99.921486,255.203842 101.906387,253.907776
	C101.163132,249.927277 95.672615,251.278030 94.422050,247.188141
	C99.947289,246.349197 103.730652,249.159225 107.167618,252.412827
	C110.924156,255.968948 110.156921,260.106232 107.408852,264.591431
	C119.191261,268.098877 130.807068,268.007172 142.470474,267.770905
	C139.940796,267.247192 137.377319,266.848053 134.888733,266.172882
	C130.256287,264.916016 127.348557,261.245911 127.965271,257.682648
	C128.543915,254.339325 132.291504,252.235031 137.413162,252.409103
	C138.143417,254.819717 135.013718,254.922348 134.756683,257.532074
	C140.498764,260.150177 146.183365,256.592926 151.895569,257.506042
	C152.102509,253.376389 147.867569,254.234467 146.965027,251.381653
	C151.397537,249.518250 154.256790,251.475311 156.493210,254.864319
	C159.377121,259.234528 158.470917,261.344696 151.499405,267.158417
	C186.008987,270.720062 253.501465,226.568436 255.400742,198.538757
	C247.518631,199.626328 239.987183,199.000992 237.797424,189.623276
	C236.204941,182.803406 237.008179,176.095200 241.666946,169.105453
	C243.397018,173.055969 241.740204,175.409256 241.126160,177.793900
	C239.766373,183.074615 241.646332,187.598389 246.146301,189.358139
	C250.105957,190.906616 253.980377,188.820145 256.301758,183.645248
	C258.455811,178.843384 259.919708,173.932816 257.207031,168.782867
	C256.742340,167.900681 256.517487,166.896820 257.545471,165.532516
	C262.968109,167.987625 261.263458,174.933014 265.349030,178.647095
	C269.794678,170.579590 270.157166,161.806885 272.785248,153.323502
	C273.000000,192.977615 273.000000,232.955215 273.000000,272.966431
	C182.406479,272.966431 91.812935,272.966431 1.109699,272.966431
	C1.109699,182.457336 1.109699,91.914482 1.109699,1.000000
	C40.020107,1.000000 79.041397,1.000000 118.531342,1.000000
z"/>
<path fill="#000000" opacity="1.000000" stroke="none"
	d="
M273.000000,118.531342
	C270.380951,115.120674 270.719086,110.456276 269.720795,106.167267
	C265.044312,86.075172 258.572784,66.810875 245.587830,50.323807
	C236.527618,38.820030 225.669922,29.400658 213.121277,21.866030
	C210.240799,20.136482 208.061844,19.794046 206.025757,23.045206
	C204.306625,25.790289 201.435547,25.966370 198.479630,25.662806
	C191.781311,24.974903 185.486267,22.845135 179.396271,20.148214
	C174.549988,18.002066 173.027786,14.754820 174.623032,9.771194
	C175.632645,6.617099 173.956589,5.794133 171.638458,5.377717
	C165.601700,4.293312 159.545639,3.309715 153.481995,2.386320
	C151.856339,2.138763 150.140045,2.456532 148.320221,1.255657
	C189.591522,1.000000 231.183044,1.000000 273.000000,1.000000
	C273.000000,40.020603 273.000000,79.041641 273.000000,118.531342
z"/>
<path fill="#000000" opacity="1.000000" stroke="none"
	d="
M273.000000,150.545898
	C264.250946,155.748917 259.343201,152.860703 258.571228,142.704117
	C258.067871,136.082108 259.307373,129.788391 261.666168,123.691658
	C262.441650,121.687325 263.327362,119.161720 266.578400,120.311295
	C262.918518,131.351807 262.561096,134.136627 263.982391,140.894104
	C266.747711,141.128647 269.533905,138.293472 272.685547,140.775818
	C273.000000,144.030594 273.000000,147.061188 273.000000,150.545898
z"/>
<path fill="#000000" opacity="1.000000" stroke="none"
	d="
M154.345215,136.087875
	C154.622009,145.345047 163.676834,151.734329 172.179901,149.091400
	C182.039993,146.026688 186.103592,138.481995 183.279694,128.579224
	C182.808533,126.926956 181.304031,125.386086 182.506882,123.453735
	C187.753235,126.022369 192.104111,134.937653 190.888306,140.549698
	C188.831497,150.043747 179.005112,157.824066 168.610077,158.189087
	C159.703232,158.501846 152.408051,153.443146 150.031448,145.306122
	C146.589111,133.520248 151.420410,123.863564 164.752563,116.076126
	C163.848938,115.969536 163.071182,115.877785 161.813889,115.729477
	C162.220673,114.279343 166.239243,113.018333 161.983536,111.479950
	C168.769730,109.366135 170.167450,110.060730 169.772064,114.888596
	C168.532059,115.268700 169.063705,113.053642 167.851776,113.369919
	C167.269577,114.294373 167.366852,115.091095 167.676636,115.896988
	C167.957840,116.628540 168.727783,117.256447 167.914856,118.574097
	C159.799408,121.038353 154.800705,126.561203 154.345215,136.087875
z"/>
<path fill="#000000" opacity="1.000000" stroke="none"
	d="
M159.368195,192.202850
	C156.804916,200.807571 151.676620,206.231277 142.851227,207.049622
	C134.304443,207.842117 126.218483,207.119553 120.850090,198.815033
	C114.078011,188.339081 118.723251,175.167007 131.687897,170.919998
	C126.445473,178.830963 118.144928,186.506195 129.029160,194.823303
	C135.303040,199.617432 145.834488,198.775238 150.328415,193.527512
	C157.855011,184.738434 150.839432,178.115784 145.568634,171.222321
	C154.754089,172.671432 160.192322,181.063141 159.368195,192.202850
z"/>
<path fill="#000000" opacity="1.000000" stroke="none"
	d="
M124.156296,143.439575
	C120.383270,155.680359 112.538597,160.506577 100.652397,158.287369
	C90.126999,156.322220 81.894279,146.969147 82.730141,137.483215
	C83.237503,131.725342 86.367058,127.287537 91.338333,123.482086
	C86.558311,136.788696 88.486626,146.635406 103.344955,150.335312
	C108.104042,151.520370 116.786789,146.862549 118.435204,142.583603
	C121.597664,134.374527 117.450775,126.796242 104.953979,118.311836
	C108.067345,115.845436 110.686569,117.747467 112.941246,119.191719
	C121.599716,124.737999 125.218124,132.817673 124.156296,143.439575
z"/>
<path fill="#000000" opacity="1.000000" stroke="none"
	d="
M150.187775,73.756500
	C146.994400,72.109802 144.106247,70.662186 140.691696,68.950699
	C146.521408,67.195969 153.867752,71.198647 157.437607,77.380196
	C162.218124,85.658104 160.741272,94.578186 153.476013,101.308060
	C146.947632,107.355354 135.332977,107.991814 127.412209,102.736275
	C119.179604,97.273842 116.505234,89.347717 119.819138,80.232559
	C122.122704,73.896423 125.858528,70.690826 130.318787,71.258522
	C130.695114,72.934525 129.259415,73.561119 128.383102,74.443230
	C122.833603,80.029579 122.309692,82.463158 125.367218,88.975426
	C127.850998,94.265678 134.558823,98.326195 140.005966,97.516563
	C143.968201,96.927635 147.809189,95.749214 150.974899,93.081444
	C157.399612,87.667274 157.189102,79.651413 150.187775,73.756500
z"/>
<path fill="#000000" opacity="1.000000" stroke="none"
	d="
M180.069275,190.169464
	C180.602753,180.753418 183.316528,173.035965 192.286224,169.106308
	C194.733398,168.034195 197.433273,166.605774 199.827759,169.342834
	C199.071609,171.650467 197.039749,171.246887 195.588943,171.786865
	C192.389679,172.977570 189.571213,174.538956 187.749832,177.596848
	C183.586273,184.587036 184.772522,193.861008 190.277542,196.860886
	C196.472717,200.236847 206.624207,196.397217 210.303711,189.243607
	C212.898575,184.198715 213.087463,178.796234 212.164780,173.142761
	C217.169388,175.370483 219.641281,182.466431 218.011475,189.071091
	C215.239487,200.304398 201.812424,208.602737 190.459702,206.098877
	C183.602615,204.586548 180.557419,200.066284 180.069275,190.169464
z"/>
<path fill="#000000" opacity="1.000000" stroke="none"
	d="
M64.435005,179.187134
	C65.278755,182.935242 65.429642,186.458939 67.263168,189.586929
	C70.842255,195.692841 77.755424,198.966919 84.672455,197.707092
	C88.189919,197.066452 90.269501,194.769180 91.365074,191.653137
	C94.268234,183.395905 89.727463,174.356293 81.458900,171.591431
	C80.125977,171.145721 78.320679,171.560593 77.715042,169.386810
	C78.906937,167.150757 80.914047,167.739304 82.776932,168.266525
	C88.780426,169.965561 92.889084,173.896515 95.273308,179.551147
	C96.635765,182.782486 97.101089,186.293625 97.253448,189.787415
	C97.774879,201.744446 91.069832,207.835709 79.230659,206.254059
	C69.263771,204.922546 60.874100,197.121994 58.964035,187.410568
	C57.875355,181.875320 60.407246,175.256851 64.642494,172.742981
	C66.510071,174.839188 64.232826,176.796143 64.435005,179.187134
z"/>
<path fill="#000000" opacity="1.000000" stroke="none"
	d="
M91.017075,39.488064
	C92.049873,37.662655 93.043861,36.352966 95.056114,36.567905
	C95.235497,36.837585 95.596161,37.130890 95.559372,37.360497
	C94.295135,45.249763 98.894150,49.734402 106.946587,48.374294
	C111.258171,47.646038 115.197021,45.957993 119.042358,43.866749
	C122.326515,42.080696 124.518242,39.818813 123.511253,35.952484
	C122.492088,32.039459 119.650223,29.877676 115.627388,29.349508
	C112.092567,28.885412 108.562202,29.751272 104.267845,30.193232
	C109.012497,25.298208 118.038353,24.639757 123.786217,28.042360
	C128.173721,30.639660 129.892899,35.789898 128.306610,41.584358
	C124.964363,53.792961 109.806282,60.932640 97.991058,56.034409
	C93.141289,54.023846 88.070496,46.862789 91.017075,39.488064
z"/>
<path fill="#000000" opacity="1.000000" stroke="none"
	d="
M182.405579,43.294697
	C182.409851,41.007191 182.301270,39.071724 182.170105,36.733494
	C185.763489,36.899097 186.631088,39.430161 187.150375,41.956974
	C188.218536,47.154732 185.022888,53.237511 180.175735,55.678329
	C169.204010,61.203228 153.231552,54.559025 149.565582,42.945152
	C146.692963,33.844547 150.084534,28.006449 159.331604,26.186907
	C164.069870,25.254560 168.357498,26.513960 173.109375,28.807184
	C170.955536,30.843437 169.230194,29.547211 167.648499,29.408117
	C162.501694,28.955507 157.632416,29.045160 154.521088,34.233677
	C152.902618,36.932701 153.039474,39.824516 155.265076,41.489300
	C161.433899,46.103691 168.048553,49.918499 176.347809,47.768799
	C178.869568,47.115612 180.985748,45.994904 182.405579,43.294697
z"/>
<path fill="#000000" opacity="1.000000" stroke="none"
	d="
M89.996758,94.864395
	C93.333694,90.242325 91.306770,84.510704 93.977798,79.855957
	C98.569023,85.292999 98.428146,94.790421 93.899170,100.691902
	C89.066338,106.989311 77.015747,109.346199 68.661179,105.628029
	C60.651829,102.063499 55.900215,93.649223 58.077496,85.802818
	C59.185261,81.810707 60.317657,77.114113 65.664581,76.480301
	C66.983231,78.128479 66.303932,79.188057 65.908798,80.251129
	C61.678406,91.632721 68.584015,100.340736 80.620125,98.752121
	C83.940628,98.313858 87.138855,97.463280 89.996758,94.864395
z"/>
<path fill="#000000" opacity="1.000000" stroke="none"
	d="
M211.573425,76.509964
	C218.600082,79.580727 221.554199,88.063873 218.532471,95.511307
	C215.126221,103.906494 205.945007,108.632729 195.905365,107.159119
	C186.380539,105.761078 180.682297,99.843491 179.786224,90.267632
	C179.423065,86.386894 180.146942,82.797966 183.357590,79.654549
	C185.058167,82.949364 185.139633,86.072815 185.289444,89.175728
	C185.499680,93.530197 187.780823,96.392494 191.837341,97.622597
	C197.634399,99.380531 203.668671,101.113113 208.671539,95.956306
	C213.346085,91.137947 213.920609,85.438179 211.090332,79.375931
	C210.653305,78.439827 210.431030,77.483170 211.573425,76.509964
z"/>
<path fill="#000000" opacity="1.000000" stroke="none"
	d="
M40.989967,123.713234
	C34.276901,131.446442 33.559303,139.835571 38.765331,146.697800
	C42.045071,151.020920 45.526978,151.543808 49.894806,148.369125
	C57.074837,143.150421 59.167477,133.590317 54.823570,125.914009
	C54.129337,124.687202 52.965008,123.599739 53.306072,121.963120
	C55.660797,121.179703 56.441578,122.845932 57.371246,124.149574
	C62.944431,131.964584 62.703720,145.336929 56.910622,152.841537
	C53.280544,157.544083 48.395016,159.051208 42.741486,158.265808
	C37.533070,157.542267 34.433411,153.977875 32.914700,149.362198
	C29.560583,139.168396 31.064558,129.657562 38.334045,121.506386
	C41.813389,117.605034 46.168427,117.675438 50.720734,121.439613
	C47.671967,123.153122 43.889786,120.943642 40.989967,123.713234
z"/>
<path fill="#000000" opacity="1.000000" stroke="none"
	d="
M95.968552,238.725555
	C91.810806,232.298538 93.877678,226.578430 97.016602,221.027542
	C98.345566,218.677383 100.370872,218.147598 102.854469,219.622650
	C98.300430,227.463562 98.731674,231.201447 104.491631,235.722733
	C110.569229,240.493347 118.621155,240.419693 123.653770,235.547424
	C127.221977,232.092896 126.601837,229.050446 120.668076,220.899429
	C125.703186,221.313858 129.676636,225.021088 130.359192,229.941238
	C131.963318,241.504501 122.333954,250.378540 110.750679,247.987305
	C104.827370,246.764511 99.868347,243.936920 95.968552,238.725555
z"/>
<path fill="#000000" opacity="1.000000" stroke="none"
	d="
M213.625977,147.061035
	C210.338730,136.631256 213.121078,125.513542 219.610397,122.473015
	C220.773865,124.163849 219.329132,125.229385 218.641602,126.450851
	C214.123688,134.477386 216.368362,144.232971 223.913223,149.301346
	C227.829712,151.932312 231.457535,151.407425 234.456512,147.775848
	C239.404434,141.784225 239.125122,131.405273 234.006699,125.607986
	C231.016312,122.220955 227.165878,122.066299 222.720673,122.765129
	C225.783539,118.841553 231.203491,118.431656 234.489746,121.719788
	C242.418686,129.653214 244.951523,141.966370 239.371613,152.441238
	C234.534012,161.522583 221.983963,161.630737 216.262482,152.845200
	C215.187775,151.194946 214.561005,149.252945 213.625977,147.061035
z"/>
<path fill="#000000" opacity="1.000000" stroke="none"
	d="
M43.182930,88.152924
	C42.822865,91.208267 42.599640,93.867424 42.060379,96.460869
	C39.905399,106.824715 31.717052,112.581734 21.192762,111.298485
	C18.339121,110.950546 16.195490,109.597397 14.730558,107.161995
	C10.401990,99.965897 14.402925,84.657990 22.052628,79.897797
	C23.131857,81.880013 21.773949,83.413200 21.094690,84.874229
	C18.968706,89.447060 18.981203,94.224655 19.396902,99.063820
	C19.696167,102.547554 21.662796,103.934433 25.122017,103.727730
	C31.713501,103.333839 39.506454,95.433739 39.701572,88.789818
	C39.862671,83.304321 36.021576,79.438095 30.453072,79.265686
	C28.748999,79.212921 26.865225,80.364120 24.989971,78.492485
	C26.972103,75.545242 29.861103,75.412628 32.748699,76.045601
	C38.956329,77.406342 42.631771,81.215904 43.182930,88.152924
z"/>
<path fill="#000000" opacity="1.000000" stroke="none"
	d="
M219.969955,34.569710
	C221.236633,35.407864 222.317062,35.979126 222.175797,37.419598
	C221.888840,37.562893 221.560226,37.879871 221.326126,37.820995
	C217.772675,36.927330 214.164886,36.444851 212.035675,40.224209
	C209.873566,44.061970 213.298996,46.350952 215.206711,48.877064
	C217.487381,51.897022 220.903320,53.429989 224.294952,54.814014
	C228.519867,56.538086 231.976898,53.912601 231.720917,49.376656
	C231.659149,48.282223 230.602463,47.227619 231.535828,46.082134
	C236.539169,47.162457 238.976440,54.220741 236.049515,59.085426
	C233.706024,62.980423 228.585587,65.294617 223.903137,63.967739
	C214.984131,61.440334 208.880295,55.693562 205.924271,46.837753
	C204.524124,42.643066 204.684204,38.472916 208.041855,35.239334
	C211.531845,31.878345 215.612152,32.488453 219.969955,34.569710
z"/>
<path fill="#000000" opacity="1.000000" stroke="none"
	d="
M71.491295,46.103912
	C68.662178,55.506508 62.468941,61.174732 53.729725,63.922348
	C49.268059,65.325096 45.129417,63.742561 42.064732,60.131676
	C39.087502,56.623833 39.576263,52.739147 41.413296,48.907082
	C42.192150,47.282387 43.084412,45.561924 45.405685,46.192387
	C46.465477,47.342194 45.671921,48.440689 45.571266,49.551277
	C45.214817,53.484158 48.460342,56.365147 52.163509,55.146694
	C56.817616,53.615360 60.931931,51.113850 63.805172,46.969269
	C65.249306,44.886147 66.745926,42.676640 65.127243,40.103535
	C63.554356,37.603214 61.116016,36.793308 58.189957,37.253746
	C57.310127,37.392189 56.297447,38.059822 55.460056,37.059994
	C58.599281,33.193237 63.094372,31.938494 67.192284,33.775394
	C71.231621,35.586044 72.853981,39.990120 71.491295,46.103912
z"/>
<path fill="#000000" opacity="1.000000" stroke="none"
	d="
M250.592285,76.659302
	C252.472290,77.920082 253.404800,79.121841 250.603714,79.564217
	C249.166183,79.791245 247.626144,79.264343 246.143829,79.331177
	C240.504913,79.585403 236.137085,85.158913 237.715363,90.473572
	C239.569534,96.717346 243.537476,101.292564 249.908447,103.314362
	C254.783646,104.861496 256.915009,103.464104 258.153687,98.494057
	C259.392517,93.523460 258.006653,88.980003 256.175995,84.461906
	C255.595856,83.030090 254.162506,81.753471 255.333359,79.236481
	C260.835663,83.658661 262.879669,89.558655 264.003845,95.632240
	C264.981110,100.912155 265.115662,106.730026 259.509857,109.835182
	C253.945663,112.917259 248.168350,111.762642 243.001846,108.389816
	C236.317062,104.025856 232.366516,90.639862 235.333054,83.200684
	C237.526733,77.699577 243.435333,75.057381 250.592285,76.659302
z"/>
<path fill="#000000" opacity="1.000000" stroke="none"
	d="
M184.298920,221.878967
	C190.865585,231.097305 186.230347,240.494919 176.484238,243.969940
	C166.301483,247.600632 153.876236,245.484329 151.279282,233.950012
	C150.216507,229.229736 151.858200,226.194229 156.164185,224.984299
	C156.966934,225.527740 157.023285,226.300369 156.898697,227.172882
	C155.880554,234.302963 158.404892,237.403412 165.531769,237.791977
	C169.397552,238.002762 173.141373,237.575317 176.724808,235.948074
	C180.487427,234.239456 183.787781,231.356125 183.267197,227.420837
	C182.759247,223.581024 179.454163,220.559128 175.301971,219.428360
	C173.460037,218.926758 171.417862,218.998703 170.190933,217.014908
	C174.860596,214.910873 178.400879,216.130661 184.298920,221.878967
z"/>
<path fill="#000000" opacity="1.000000" stroke="none"
	d="
M136.551483,12.651636
	C140.540680,12.129926 144.599152,13.992927 147.773392,10.607415
	C144.676086,6.867684 139.506454,9.446357 136.222946,6.543125
	C141.273911,2.458859 153.209030,5.825195 154.819473,11.708802
	C155.679077,14.849335 153.918686,17.134722 151.446152,18.860638
	C144.980103,23.374187 128.758011,21.583418 123.326889,15.797823
	C121.368340,13.711455 120.998932,11.282180 122.474464,8.953979
	C124.400307,5.915251 127.153549,4.375768 130.709549,5.631586
	C132.242767,7.620084 129.621765,8.745861 130.043243,10.385653
	C131.973740,11.580412 133.930313,12.428584 136.551483,12.651636
z"/>
<path fill="#000000" opacity="1.000000" stroke="none"
	d="
M225.463684,223.577759
	C226.132324,223.334946 226.445953,223.217102 226.735138,223.055527
	C234.744186,218.580765 234.818085,218.244370 229.256454,211.365662
	C230.735718,208.998779 232.480484,210.420380 233.891449,211.260101
	C237.556168,213.441086 239.152008,218.727539 236.409302,222.158447
	C230.992935,228.933868 224.952362,235.232483 215.347046,235.667313
	C211.490555,235.841888 208.068756,234.863922 205.758957,231.488724
	C202.677078,226.985321 204.785873,222.330582 210.254013,221.484848
	C211.453110,227.302307 212.273209,227.737534 218.455902,225.802536
	C220.673645,225.108429 222.883713,224.389771 225.463684,223.577759
z"/>
<path fill="#000000" opacity="1.000000" stroke="none"
	d="
M204.063477,248.653351
	C198.328613,257.586090 189.654190,259.815735 180.202652,260.152161
	C176.464905,260.285217 175.277908,257.805695 175.889618,254.459946
	C176.776184,249.610870 181.993362,247.252670 186.375626,249.539261
	C189.921829,251.389603 192.758728,247.855255 196.165115,248.415665
	C194.608200,247.143921 192.475113,249.170578 191.171356,247.133911
	C195.815598,241.814835 201.769272,242.342163 204.063477,248.653351
z"/>
</svg>
